<svg xmlns="http://www.w3.org/2000/svg" width="1200" height="400" viewBox="0 0 1200 400">
  <defs>
    <linearGradient id="grad1" x1="0%" y1="0%" x2="100%" y2="100%">
      <stop offset="0%" style="stop-color:#001f3f;stop-opacity:1" />
      <stop offset="100%" style="stop-color:#003366;stop-opacity:1" />
    </linearGradient>
  </defs>
  
  <!-- Background -->
  <rect width="1200" height="400" fill="url(#grad1)" />
  
  <!-- Abstract Highway -->
  <path d="M0 250 Q 300 230, 600 250 T 1200 230" stroke="#444444" stroke-width="70" fill="none" />
  
  <!-- Stylized Truck Silhouette -->
  <g transform="translate(900, 200) scale(0.5)">
    <rect x="-200" y="-100" width="400" height="120" rx="20" fill="#222222" />
    <rect x="-300" y="-80" width="100" height="100" rx="10" fill="#222222" />
    <circle cx="-250" cy="50" r="30" fill="#333333" />
    <circle cx="-150" cy="50" r="30" fill="#333333" />
    <circle cx="50" cy="50" r="30" fill="#333333" />
    <circle cx="150" cy="50" r="30" fill="#333333" />
  </g>
  
  <!-- Abstract Cargo Elements -->
  <rect x="100" y="150" width="100" height="70" rx="5" fill="#444444" opacity="0.6" />
  <rect x="250" y="120" width="80" height="100" rx="5" fill="#555555" opacity="0.6" />
  <rect x="400" y="130" width="120" height="80" rx="5" fill="#444444" opacity="0.6" />
  
  <!-- Dots Pattern for Texture -->
  <g fill="#ffffff" opacity="0.05">
    <circle cx="100" cy="50" r="2" />
    <circle cx="200" cy="70" r="1" />
    <circle cx="300" cy="50" r="3" />
    <circle cx="400" cy="80" r="2" />
    <circle cx="500" cy="70" r="1" />
    <circle cx="600" cy="50" r="2" />
    <circle cx="700" cy="80" r="3" />
    <circle cx="800" cy="70" r="1" />
    <circle cx="900" cy="50" r="2" />
    <circle cx="1000" cy="80" r="1" />
    <circle cx="1100" cy="70" r="3" />
    
    <circle cx="150" cy="150" r="2" />
    <circle cx="250" cy="170" r="1" />
    <circle cx="350" cy="150" r="3" />
    <circle cx="450" cy="180" r="2" />
    <circle cx="550" cy="170" r="1" />
    <circle cx="650" cy="150" r="2" />
    <circle cx="750" cy="180" r="3" />
    <circle cx="850" cy="170" r="1" />
    <circle cx="950" cy="150" r="2" />
    <circle cx="1050" cy="180" r="1" />
    <circle cx="1150" cy="170" r="3" />
    
    <circle cx="100" cy="250" r="2" />
    <circle cx="200" cy="270" r="1" />
    <circle cx="300" cy="250" r="3" />
    <circle cx="400" cy="280" r="2" />
    <circle cx="500" cy="270" r="1" />
    <circle cx="600" cy="250" r="2" />
    <circle cx="700" cy="280" r="3" />
    <circle cx="800" cy="270" r="1" />
    <circle cx="900" cy="250" r="2" />
    <circle cx="1000" cy="280" r="1" />
    <circle cx="1100" cy="270" r="3" />
    
    <circle cx="150" cy="350" r="2" />
    <circle cx="250" cy="370" r="1" />
    <circle cx="350" cy="350" r="3" />
    <circle cx="450" cy="380" r="2" />
    <circle cx="550" cy="370" r="1" />
    <circle cx="650" cy="350" r="2" />
    <circle cx="750" cy="380" r="3" />
    <circle cx="850" cy="370" r="1" />
    <circle cx="950" cy="350" r="2" />
    <circle cx="1050" cy="380" r="1" />
    <circle cx="1150" cy="370" r="3" />
  </g>
</svg>