<svg xmlns="http://www.w3.org/2000/svg" width="1200" height="800" viewBox="0 0 1200 800">
  <defs>
    <linearGradient id="grad1" x1="0%" y1="0%" x2="100%" y2="100%">
      <stop offset="0%" style="stop-color:#001f3f;stop-opacity:1" />
      <stop offset="100%" style="stop-color:#003366;stop-opacity:1" />
    </linearGradient>
  </defs>
  
  <!-- Background -->
  <rect width="1200" height="800" fill="url(#grad1)" />
  
  <!-- Abstract Road -->
  <path d="M0 600 Q 300 550, 600 600 T 1200 550" stroke="#444444" stroke-width="100" fill="none" />
  
  <!-- Stylized Truck Silhouette -->
  <g transform="translate(700, 400) scale(0.8)">
    <rect x="-200" y="-100" width="400" height="120" rx="20" fill="#222222" />
    <rect x="-300" y="-80" width="100" height="100" rx="10" fill="#222222" />
    <circle cx="-250" cy="50" r="30" fill="#333333" />
    <circle cx="-150" cy="50" r="30" fill="#333333" />
    <circle cx="50" cy="50" r="30" fill="#333333" />
    <circle cx="150" cy="50" r="30" fill="#333333" />
  </g>
  
  <!-- Abstract Cargo Elements -->
  <rect x="100" y="300" width="150" height="100" rx="10" fill="#444444" opacity="0.7" />
  <rect x="300" y="250" width="120" height="150" rx="10" fill="#555555" opacity="0.7" />
  <rect x="900" y="200" width="180" height="120" rx="10" fill="#444444" opacity="0.7" />
  
  <!-- Dots Pattern for Texture -->
  <g fill="#ffffff" opacity="0.05">
    <circle cx="100" cy="100" r="3" />
    <circle cx="200" cy="150" r="2" />
    <circle cx="300" cy="100" r="4" />
    <circle cx="400" cy="200" r="3" />
    <circle cx="500" cy="150" r="2" />
    <circle cx="600" cy="100" r="3" />
    <circle cx="700" cy="200" r="4" />
    <circle cx="800" cy="150" r="2" />
    <circle cx="900" cy="100" r="3" />
    <circle cx="1000" cy="200" r="2" />
    <circle cx="1100" cy="150" r="4" />
    
    <circle cx="150" cy="300" r="3" />
    <circle cx="250" cy="350" r="2" />
    <circle cx="350" cy="300" r="4" />
    <circle cx="450" cy="400" r="3" />
    <circle cx="550" cy="350" r="2" />
    <circle cx="650" cy="300" r="3" />
    <circle cx="750" cy="400" r="4" />
    <circle cx="850" cy="350" r="2" />
    <circle cx="950" cy="300" r="3" />
    <circle cx="1050" cy="400" r="2" />
    <circle cx="1150" cy="350" r="4" />
    
    <circle cx="100" cy="500" r="3" />
    <circle cx="200" cy="550" r="2" />
    <circle cx="300" cy="500" r="4" />
    <circle cx="400" cy="600" r="3" />
    <circle cx="500" cy="550" r="2" />
    <circle cx="600" cy="500" r="3" />
    <circle cx="700" cy="600" r="4" />
    <circle cx="800" cy="550" r="2" />
    <circle cx="900" cy="500" r="3" />
    <circle cx="1000" cy="600" r="2" />
    <circle cx="1100" cy="550" r="4" />
  </g>
</svg>